{
	"asset":{
		"generator":"Khronos glTF Blender I/O v3.6.27",
		"version":"2.0"
	},
	"scene":0,
	"scenes":[
		{
			"name":"Scene",
			"nodes":[
				0
			]
		}
	],
	"nodes":[
		{
			"mesh":0,
			"name":"CylinderArray"
		}
	],
	"materials":[
		{
			"doubleSided":true,
			"name":"Material.002",
			"pbrMetallicRoughness":{
				"baseColorFactor":[
					0.4317359924316406,
					0.0002561258734203875,
					0.8000000715255737,
					1
				],
				"metallicFactor":0,
				"roughnessFactor":0.21653541922569275
			}
		}
	],
	"meshes":[
		{
			"name":"Cylinder",
			"primitives":[
				{
					"attributes":{
						"POSITION":0,
						"NORMAL":1,
						"TEXCOORD_0":2
					},
					"indices":3,
					"material":0
				}
			]
		}
	],
	"accessors":[
		{
			"bufferView":0,
			"componentType":5126,
			"count":15492,
			"max":[
				7.800000190734863,
				0.6800000071525574,
				7.800000190734863
			],
			"min":[
				-7.800000190734863,
				-0.6800000071525574,
				-7.800000190734863
			],
			"type":"VEC3"
		},
		{
			"bufferView":1,
			"componentType":5126,
			"count":15492,
			"type":"VEC3"
		},
		{
			"bufferView":2,
			"componentType":5126,
			"count":15492,
			"type":"VEC2"
		},
		{
			"bufferView":3,
			"componentType":5123,
			"count":68400,
			"type":"SCALAR"
		}
	],
	"bufferViews":[
		{
			"buffer":0,
			"byteLength":185904,
			"byteOffset":0,
			"target":34962
		},
		{
			"buffer":0,
			"byteLength":185904,
			"byteOffset":185904,
			"target":34962
		},
		{
			"buffer":0,
			"byteLength":123936,
			"byteOffset":371808,
			"target":34962
		},
		{
			"buffer":0,
			"byteLength":136800,
			"byteOffset":495744,
			"target":34963
		}
	],
	"buffers":[
		{
			"byteLength":632544,
			"uri":"data:application/octet-stream;base64,"
		}
	]
}
